<?xml version="1.0" encoding="UTF-8"?>
<svg id="Layer_1" data-name="Layer 1" xmlns="http://www.w3.org/2000/svg" viewBox="0 0 235.52 369.92">
  <path d="m141.19,265.37l66.55,104.54h-20.02l-65.11-102.31-4.86-7.65,8.09-8.12,1.89-1.89,59.98-69.99h20.02l-58.98,67.42c41.25-13.16,71.2-51.86,71.2-97.4,0-56.36-45.85-102.2-102.2-102.2-4.91,0-9.72.34-14.45,1.02v-15.69c4.73-.6,9.56-.89,14.45-.89,64.92,0,117.76,52.81,117.76,117.76,0,56.88-40.59,104.49-94.32,115.39Z"/>
  <g>
    <path d="m0,149.97c0,48.79,29.83,90.75,72.21,108.59v-17.12c-33.56-16.77-56.65-51.47-56.65-91.47s23.1-74.7,56.65-91.47v-17.12C29.83,59.22,0,101.18,0,149.97Z"/>
    <polygon points="77.76 39.21 77.76 55.92 77.76 244.02 77.76 260.72 77.76 369.92 97.76 369.92 97.76 266.01 97.76 250.2 97.76 49.73 97.76 33.93 97.76 0 77.76 0 77.76 39.21"/>
  </g>
</svg>