<?xml version="1.0" encoding="UTF-8"?>
<svg id="Layer_1" data-name="Layer 1" xmlns="http://www.w3.org/2000/svg" viewBox="0 0 746.43 220.32">
  <g>
    <path d="m84.09,158.05l39.64,62.27h-11.92l-38.78-60.93-2.89-4.55,4.82-4.84,1.13-1.13,35.73-41.69h11.92l-35.13,40.15c24.57-7.84,42.41-30.89,42.41-58.01,0-33.57-27.31-60.87-60.87-60.87-2.93,0-5.79.2-8.61.61v-9.34c2.82-.36,5.7-.53,8.61-.53,38.67,0,70.14,31.45,70.14,70.14,0,33.88-24.18,62.23-56.18,68.73Z"/>
    <g>
      <path d="m0,89.32c0,29.06,17.76,54.05,43.01,64.67v-10.2c-19.99-9.99-33.74-30.65-33.74-54.48s13.76-44.49,33.74-54.48v-10.2C17.76,35.27,0,60.26,0,89.32Z"/>
      <polygon points="46.31 23.36 46.31 33.31 46.31 145.33 46.31 155.28 46.31 220.32 58.22 220.32 58.22 158.43 58.22 149.02 58.22 29.62 58.22 20.21 58.22 0 46.31 0 46.31 23.36"/>
    </g>
  </g>
  <g>
    <path d="m326.01,128.94c-3.16,7.63-7.57,14.35-13.24,20.15l16.27,17.22h-11.54l-11.35-11.54c-5.3,4.04-11.16,7.19-17.6,9.46-6.43,2.27-13.12,3.4-20.06,3.4-11.23,0-21.6-2.81-31.12-8.42-9.53-5.61-17.09-13.24-22.71-22.9-5.61-9.65-8.42-20.15-8.42-31.5s2.81-21.85,8.42-31.5c5.61-9.65,13.18-17.28,22.71-22.89,9.52-5.61,19.9-8.42,31.12-8.42s21.63,2.81,31.22,8.42c9.58,5.61,17.15,13.24,22.71,22.89,5.55,9.65,8.33,20.15,8.33,31.5,0,8.45-1.58,16.49-4.73,24.12Zm-40.59,27.25c5.49-1.83,10.44-4.38,14.85-7.66l-36.9-39.92,6.43-5.87,37.09,40.11c4.79-5.04,8.51-10.85,11.16-17.41,2.65-6.56,3.97-13.43,3.97-20.62,0-9.84-2.4-18.89-7.19-27.15-4.8-8.26-11.29-14.82-19.49-19.68-8.2-4.86-17.16-7.29-26.87-7.29s-18.67,2.43-26.87,7.29c-8.2,4.86-14.73,11.42-19.58,19.68-4.86,8.26-7.29,17.31-7.29,27.15s2.43,18.89,7.29,27.15c4.85,8.26,11.38,14.82,19.58,19.68,8.2,4.86,17.15,7.28,26.87,7.28,5.8,0,11.45-.91,16.93-2.74Z"/>
    <path d="m403.39,167.63c-6.18,0-12.14-1.23-17.88-3.69-5.74-2.46-10.82-5.96-15.23-10.5-4.42-4.29-7.79-9.33-10.12-15.14-2.34-5.8-3.5-11.92-3.5-18.35V43.32h8.51v76.63c0,5.3.98,10.35,2.93,15.14,1.95,4.8,4.7,8.96,8.23,12.49,3.66,3.66,7.82,6.46,12.49,8.42,4.67,1.96,9.52,2.93,14.57,2.93s10.09-.98,14.76-2.93c4.67-1.95,8.83-4.76,12.49-8.42,3.53-3.53,6.27-7.69,8.23-12.49,1.95-4.79,2.93-9.84,2.93-15.14V43.32h8.51v76.63c0,6.43-1.17,12.55-3.5,18.35-2.34,5.8-5.71,10.85-10.12,15.14-4.42,4.54-9.46,8.04-15.14,10.5-5.68,2.46-11.73,3.69-18.16,3.69Z"/>
    <path d="m487.21,166.31V43.32h8.51v122.99h-8.51Z"/>
    <path d="m606.98,166.31l-51.09-62.06h15.14c9.33,0,16.9-1.2,22.71-3.59,4.29-2.02,8.01-5.08,11.16-9.18,3.15-4.1,4.73-8.61,4.73-13.53,0-4.41-1.33-8.61-3.97-12.58-2.65-3.97-6.43-7.22-11.35-9.74-4.92-2.52-10.6-3.78-17.03-3.78h-34.44v114.47h-8.51V43.32h42.95c5.8,0,11.23.92,16.27,2.74,5.04,1.83,9.46,4.45,13.24,7.85,3.66,3.28,6.46,7,8.42,11.16,1.95,4.16,2.93,8.45,2.93,12.87,0,6.94-2.08,13.15-6.24,18.64-4.16,5.49-9.08,9.43-14.76,11.83-3.91,1.77-7.73,2.87-11.45,3.31-3.72.44-7.66.66-11.83.66l44.46,53.93h-11.35Z"/>
    <path d="m746.43,166.31h-11.35l-44.09-52.41-39.74,54.49V43.32h8.51v98.58l71.71-98.58h10.79l-46.17,63.2,50.33,59.79Z"/>
  </g>
</svg>